<svg width="13" height="16" viewBox="0 0 13 16" fill="none" xmlns="http://www.w3.org/2000/svg">
<path d="M2 7.333L12.223 0.518C12.2983 0.467894 12.3858 0.439152 12.4761 0.43483C12.5664 0.430508 12.6563 0.450771 12.736 0.49346C12.8157 0.536148 12.8824 0.599664 12.9289 0.677242C12.9754 0.754821 13 0.843558 13 0.934L13 15.066C13 15.1564 12.9754 15.2452 12.9289 15.3228C12.8824 15.4003 12.8157 15.4639 12.736 15.5065C12.6563 15.5492 12.5664 15.5695 12.4761 15.5652C12.3858 15.5608 12.2983 15.5321 12.223 15.482L2 8.667L2 15C2 15.2652 1.89464 15.5196 1.70711 15.7071C1.51957 15.8946 1.26522 16 1 16C0.734783 16 0.480429 15.8946 0.292892 15.7071C0.105356 15.5196 6.42368e-08 15.2652 8.74228e-08 15L1.31134e-06 0.999999C1.33453e-06 0.734782 0.105358 0.480428 0.292894 0.292891C0.48043 0.105355 0.734785 -1.07226e-06 1 -1.04907e-06C1.26522 -1.02589e-06 1.51957 0.105355 1.70711 0.292891C1.89465 0.480428 2 0.734782 2 0.999999L2 7.333Z" fill="white"/>
</svg>
